<svg xmlns="http://www.w3.org/2000/svg" width="30px" height="36px" viewBox="13 11 30 36">
<path fill="#F47E72" d="M42.929,24.838c-0.234-2.622-1.135-5.137-2.615-7.3c-1.48-2.163-3.489-3.899-5.829-5.039
	c-2.341-1.14-4.933-1.644-7.523-1.463c-2.59,0.181-5.09,1.04-7.255,2.494c-1.854,1.257-3.411,2.915-4.558,4.855
	c-1.147,1.94-1.856,4.113-2.077,6.364c-0.216,2.236,0.061,4.493,0.812,6.606s1.956,4.032,3.529,5.614l9.353,9.501
	c0.164,0.168,0.359,0.301,0.574,0.392S27.785,47,28.018,47s0.464-0.047,0.679-0.138c0.215-0.091,0.41-0.224,0.574-0.392l9.317-9.501
	c1.573-1.583,2.778-3.501,3.529-5.614c0.751-2.114,1.028-4.37,0.812-6.606V24.838z M36.117,34.447L28,42.677l-8.117-8.231
	c-1.196-1.213-2.113-2.68-2.683-4.295c-0.571-1.615-0.781-3.338-0.617-5.045c0.166-1.734,0.709-3.408,1.591-4.903
	c0.882-1.495,2.08-2.772,3.509-3.739c1.872-1.261,4.07-1.934,6.317-1.934s4.445,0.673,6.317,1.934
	c1.424,0.964,2.62,2.235,3.502,3.723c0.882,1.488,1.428,3.156,1.598,4.883c0.17,1.713-0.038,3.443-0.609,5.065
	C38.237,31.757,37.318,33.23,36.117,34.447z M36.117,34.447L28,42.677l-8.117-8.231c-1.196-1.213-2.113-2.68-2.683-4.295
	c-0.571-1.615-0.781-3.338-0.617-5.045c0.166-1.734,0.709-3.408,1.591-4.903c0.882-1.495,2.08-2.772,3.509-3.739
	c1.872-1.261,4.07-1.934,6.317-1.934s4.445,0.673,6.317,1.934c1.424,0.964,2.62,2.235,3.502,3.723
	c0.882,1.488,1.428,3.156,1.598,4.883c0.17,1.713-0.038,3.443-0.609,5.065C38.237,31.757,37.318,33.23,36.117,34.447z"/>
<ellipse fill="#CB1301" cx="28" cy="26" rx="10.5" ry="10.5"/>
</svg>
